# Blender 4.5.2 LTS
# www.blender.org
mtllib Table_Collider.mtl
o Collider
v -0.501448 0.625068 0.938319
v -0.938319 0.625068 0.501448
v -0.719883 0.625068 0.879789
v -0.879789 0.625068 0.719883
v 0.938319 0.625068 0.501448
v 0.501448 0.625068 0.938319
v 0.879789 0.625068 0.719883
v 0.719883 0.625068 0.879789
v -0.938319 0.625068 -0.501448
v -0.501448 0.625068 -0.938319
v -0.879789 0.625068 -0.719883
v -0.719883 0.625068 -0.879789
v 0.501448 0.625068 -0.938319
v 0.938319 0.625068 -0.501448
v 0.719883 0.625068 -0.879789
v 0.879789 0.625068 -0.719883
v -0.938319 0.437789 0.501448
v -0.501448 0.437789 0.938319
v -0.879789 0.437789 0.719883
v -0.719883 0.437789 0.879789
v 0.501448 0.437789 0.938319
v 0.938319 0.437789 0.501448
v 0.719883 0.437789 0.879789
v 0.879789 0.437789 0.719883
v -0.501448 0.437789 -0.938319
v -0.938319 0.437789 -0.501448
v -0.719883 0.437789 -0.879789
v -0.879789 0.437789 -0.719883
v 0.938319 0.437789 -0.501448
v 0.501448 0.437789 -0.938319
v 0.879789 0.437789 -0.719883
v 0.719883 0.437789 -0.879789
v -0.136309 -0.630534 0.513422
v -0.510456 -0.630534 0.137101
v -0.400871 -0.630534 0.403200
v -0.510456 -0.471068 0.137101
v -0.136309 -0.471068 0.513422
v -0.400871 -0.471068 0.403200
v -0.510456 -0.630534 -0.137101
v -0.136309 -0.630534 -0.513422
v -0.400871 -0.630534 -0.403200
v -0.136309 -0.471068 -0.513422
v -0.510456 -0.471068 -0.137101
v -0.400871 -0.471068 -0.403200
v 0.510456 -0.630534 0.137101
v 0.136309 -0.630534 0.513422
v 0.400871 -0.630534 0.403200
v 0.136309 -0.471068 0.513422
v 0.510456 -0.471068 0.137101
v 0.400871 -0.471068 0.403200
v 0.136309 -0.630534 -0.513422
v 0.510456 -0.630534 -0.137101
v 0.400871 -0.630534 -0.403200
v 0.510456 -0.471068 -0.137101
v 0.136309 -0.471068 -0.513422
v 0.400871 -0.471068 -0.403200
v -0.144081 -0.500548 0.144081
v -0.144081 0.500548 0.144081
v -0.144081 -0.500548 -0.144081
v -0.144081 0.500548 -0.144081
v 0.144081 -0.500548 0.144081
v 0.144081 0.500548 0.144081
v 0.144081 -0.500548 -0.144081
v 0.144081 0.500548 -0.144081
vn 0.2588 -0.0000 -0.9659
vn 0.7071 -0.0000 -0.7071
vn 0.9659 -0.0000 -0.2588
vn 0.2588 -0.0000 0.9659
vn 0.7071 -0.0000 0.7071
vn 0.9659 -0.0000 0.2588
vn -0.2588 -0.0000 0.9659
vn -0.7071 -0.0000 0.7071
vn -0.9659 -0.0000 0.2588
vn -0.2588 -0.0000 -0.9659
vn -0.7071 -0.0000 -0.7071
vn -0.9659 -0.0000 -0.2588
vn -1.0000 -0.0000 -0.0000
vn -0.0000 1.0000 -0.0000
vn -0.0000 -0.0000 1.0000
vn 1.0000 -0.0000 -0.0000
vn -0.0000 -0.0000 -1.0000
vn -0.0000 -1.0000 -0.0000
vn -0.3846 -0.0000 0.9231
vn -0.9247 -0.0000 0.3808
vn -0.3846 -0.0000 -0.9231
vn -0.9247 -0.0000 -0.3808
vn 0.9247 -0.0000 -0.3808
vn 0.3846 -0.0000 -0.9231
vn 0.3846 -0.0000 0.9231
vn 0.9247 -0.0000 0.3808
vt 0.767206 1.000000
vt 0.883603 0.969499
vt 0.969499 0.883603
vt 0.969499 0.883603
vt 1.000000 0.767206
vt 0.767206 0.000000
vt 0.883603 0.030501
vt 0.883603 0.030501
vt 0.969499 0.116397
vt 1.000000 0.232794
vt 0.232794 0.000000
vt 0.116397 0.030501
vt 0.116397 0.030501
vt 0.030501 0.116397
vt 0.030501 0.116397
vt 0.000000 0.232794
vt 0.232794 1.000000
vt 0.116397 0.969499
vt 0.116397 0.969499
vt 0.030501 0.883603
vt 0.000000 0.767206
vt 0.375000 0.908379
vt 0.625000 0.908379
vt 0.625000 1.000000
vt 0.375000 1.000000
vt 0.375000 0.000000
vt 0.625000 0.000000
vt 0.625000 0.091621
vt 0.375000 0.091621
vt 0.625000 0.341621
vt 0.375000 0.341621
vt 0.375000 0.250000
vt 0.625000 0.250000
vt 0.375000 0.158379
vt 0.625000 0.158379
vt 0.625000 0.591621
vt 0.375000 0.591621
vt 0.358890 0.516110
vt 0.641110 0.516110
vt 0.319465 0.463915
vt 0.680536 0.463915
vt 0.680536 0.786085
vt 0.319465 0.786085
vt 0.358890 0.733890
vt 0.641110 0.733890
vt 0.375000 0.658379
vt 0.625000 0.658379
vt 0.125000 0.591621
vt 0.151835 0.526835
vt 0.216621 0.500000
vt 0.216621 0.750000
vt 0.151835 0.723165
vt 0.125000 0.658379
vt 0.783379 0.500000
vt 0.848165 0.526835
vt 0.875000 0.591621
vt 0.875000 0.658379
vt 0.848165 0.723165
vt 0.783379 0.750000
vt 0.625000 0.500000
vt 0.375000 0.500000
vt 0.625000 0.750000
vt 0.375000 0.750000
vt 0.125000 0.500000
vt 0.125000 0.750000
vt 0.875000 0.500000
vt 0.875000 0.750000
s 0
f 13/1/1 15/2/1 32/2/1 30/1/1
f 15/2/2 16/3/2 31/4/2 32/2/2
f 16/3/3 14/5/3 29/5/3 31/4/3
f 21/6/4 23/7/4 8/8/4 6/6/4
f 23/7/5 24/9/5 7/9/5 8/8/5
f 24/9/6 22/10/6 5/10/6 7/9/6
f 1/11/7 3/12/7 20/13/7 18/11/7
f 3/12/8 4/14/8 19/15/8 20/13/8
f 4/14/9 2/16/9 17/16/9 19/15/9
f 25/17/10 27/18/10 12/19/10 10/17/10
f 27/18/11 28/20/11 11/20/11 12/19/11
f 28/20/12 26/21/12 9/21/12 11/20/12
f 9/21/13 26/21/13 17/16/13 2/16/13
f 1/11/14 6/6/14 8/8/14 7/9/14 5/10/14 14/5/14 16/3/14 15/2/14 13/1/14 10/17/14 12/19/14 11/20/14 9/21/14 2/16/14 4/14/14 3/12/14
f 1/11/15 18/11/15 21/6/15 6/6/15
f 5/10/16 22/10/16 29/5/16 14/5/16
f 13/1/17 30/1/17 25/17/17 10/17/17
f 17/16/18 26/21/18 28/20/18 27/18/18 25/17/18 30/1/18 32/2/18 31/4/18 29/5/18 22/10/18 24/9/18 23/7/18 21/6/18 18/11/18 20/13/18 19/15/18
f 33/22/19 37/23/19 38/24/19 35/25/19
f 35/26/20 38/27/20 36/28/20 34/29/20
f 42/30/21 40/31/21 41/32/21 44/33/21
f 44/33/22 41/32/22 39/34/22 43/35/22
f 54/36/23 52/37/23 53/38/23 56/39/23
f 56/39/24 53/38/24 51/40/24 55/41/24
f 48/42/25 46/43/25 47/44/25 50/45/25
f 50/45/26 47/44/26 45/46/26 49/47/26
f 39/48/18 41/49/18 40/50/18 51/40/18 53/38/18 52/37/18 45/46/18 47/44/18 46/43/18 33/51/18 35/52/18 34/53/18
f 34/29/13 36/28/13 43/35/13 39/34/13
f 46/43/15 48/42/15 37/23/15 33/22/15
f 54/36/14 56/39/14 55/41/14 42/54/14 44/55/14 43/56/14 36/57/14 38/58/14 37/59/14 48/42/14 50/45/14 49/47/14
f 40/31/17 42/30/17 55/41/17 51/40/17
f 52/37/16 54/36/16 49/47/16 45/46/16
f 57/26/13 58/27/13 60/33/13 59/32/13
f 59/32/17 60/33/17 64/60/17 63/61/17
f 63/61/16 64/60/16 62/62/16 61/63/16
f 61/63/15 62/62/15 58/24/15 57/25/15
f 59/64/18 63/61/18 61/63/18 57/65/18
f 64/60/14 60/66/14 58/67/14 62/62/14
